# xmcd
#
# Track frame offsets:
#	150
#	13874
#	29219
#	42891
#	57483
#	71226
#	82615
#	96505
#	108669
#	120505
#	139142
#	150865
#
# Disc length: 2177 seconds
# Revision: 0
# Processed by: cddbd v1.5.2PL0 Copyright (c) Steve Scherf et al.
# Submitted via: dBpowerAMP V12.0
#
DISCID=a2087f0c
DTITLE=Ray Edwards - A Golden Anniversary Celebration
DYEAR=2018
DGENRE=Bluegrass
TTITLE0=The Life of a Mountain Man
TTITLE1=I Wouild Have Loved You All Night Long
TTITLE2=Wanda Lou
TTITLE3=West Virginia Songbird
TTITLE4=The Cold Hard Facts of Love
TTITLE5=The Matewan Train
TTITLE6=My Best Pal
TTITLE7=Out of the Blue
TTITLE8=Tennessee
TTITLE9=When the Golden Leaves Begin to Fall
TTITLE10=Lovin' Dangerously
TTITLE11=Boat of Love
EXTD=
EXTT0=
EXTT1=
EXTT2=
EXTT3=
EXTT4=
EXTT5=
EXTT6=
EXTT7=
EXTT8=
EXTT9=
EXTT10=
EXTT11=
PLAYORDER=
